# xmcd
#
# Track frame offsets:
#	150
#	35518
#	61625
#	81910
#	100427
#	117770
#	137798
#	163669
#	183748
#	207284
#
# Disc length: 2968 seconds
#
# Revision: 0
# Processed by: cddbd v1.5.2PL0 Copyright (c) Steve Scherf et al.
# Submitted via: dBpowerAMP V4.0
#
DISCID=890b960a
DTITLE=Walter "Wolfman" Washington - Doin' The Funky Thing
DYEAR=2008
DGENRE=Blues
TTITLE0=Shake Your Booty-/ Funky Thing Part 1
TTITLE1=I'm Back
TTITLE2=Tweakin'
TTITLE3=One Day From Being A Fool
TTITLE4=Crescent City Starlights
TTITLE5=Just Like That
TTITLE6=Only You
TTITLE7=Wolf Jazz
TTITLE8=Landslide
TTITLE9=Shake Your Booty-/ Funky Thing Part 2
EXTD=
EXTT0=
EXTT1=
EXTT2=
EXTT3=
EXTT4=
EXTT5=
EXTT6=
EXTT7=
EXTT8=
EXTT9=
PLAYORDER=
